<?xml version="1.0" encoding="iso-8859-1"?>
<!-- Uploaded to: SVG Repo, www.svgrepo.com, Generator: SVG Repo Mixer Tools -->
<svg height="800px" width="800px" version="1.1" id="Layer_1" xmlns="http://www.w3.org/2000/svg" xmlns:xlink="http://www.w3.org/1999/xlink" 
	 viewBox="0 0 512 512" xml:space="preserve">
<path d="M191.664,396.176v-23.664c38.52-21.816,52.064-70.72,30.248-109.24s-70.72-52.064-109.24-30.248
	s-52.064,70.72-30.248,109.24c7.16,12.64,17.608,23.096,30.248,30.248v23.664C37.984,399.672,0,450.176,0,484.12V512h304.336v-27.88
	C304.336,450.176,266.352,399.672,191.664,396.176z"/>
<path style="fill:#333333;" d="M354.92,80.736c-42.104,0-76.24,34.136-76.24,76.24s34.136,76.24,76.24,76.24
	s76.24-34.136,76.24-76.24l0,0C431.16,114.872,397.024,80.736,354.92,80.736z M354.92,202.992c-25.416,0-46.016-20.6-46.016-46.016
	s20.6-46.016,46.016-46.016s46.016,20.6,46.016,46.016l0,0C400.936,182.392,380.336,202.992,354.92,202.992z"/>
<path style="fill:#E21B1B;" d="M512,180.504v-47.088l-34.864-3.488c-3.152-14.264-8.8-27.864-16.672-40.168l22.224-27.144
	l-33.304-33.304l-27.128,22.2c-12.312-7.888-25.92-13.552-40.2-16.728L378.576,0h-47.288L327.8,34.784
	c-14.28,3.168-27.896,8.832-40.208,16.728l-27.12-22.192L227.2,62.624l22.208,27.136c-7.872,12.312-13.52,25.912-16.68,40.176
	l-34.848,3.488v47.096l34.816,3.48c3.152,14.272,8.8,27.88,16.68,40.192L227.2,251.328l33.304,33.304l27.12-22.192
	c12.304,7.912,25.904,13.584,40.184,16.76l3.488,34.784h47.288l3.488-34.784c14.288-3.192,27.896-8.88,40.208-16.8l27.128,22.2
	l33.304-33.304l-22.224-27.152C468.36,211.848,474,198.256,477.144,184L512,180.504z M354.92,233.2
	c-42.104,0-76.24-34.136-76.24-76.24s34.136-76.24,76.24-76.24s76.24,34.136,76.24,76.24S397.024,233.2,354.92,233.2L354.92,233.2z"
	/>
</svg>